<?xml version="1.0" encoding="utf-8"?>
<svg width="40" height="40" viewBox="0 0 40 40" fill="none" xmlns="http://www.w3.org/2000/svg">
  <defs>
    <linearGradient id="gradient_1" gradientUnits="userSpaceOnUse" x1="40" y1="0" x2="0" y2="40">
      <stop offset="0" stop-color="#002A85" />
      <stop offset="0.983" stop-color="#002F97" />
    </linearGradient>
  </defs>
  <g>
    <g transform="matrix(1 0 -0 1 0 0)">
      <rect width="40" height="40" rx="8" fill="url(#gradient_1)" fill-rule="evenodd" />
      <g transform="matrix(1 -0 0 1 10 11)">
        <path d="M0 0L-3.72529e-08 19.9995" fill="none" stroke-width="1.5" stroke="#FFFFFF" stroke-linecap="square" transform="matrix(1 0 -0 1 0.003 0.001)" />
        <path d="M0 0L19.9967 3.72529e-08" fill="none" stroke-width="1.5" stroke="#FFFFFF" stroke-linecap="square" transform="matrix(1 0 -0 1 0.003 0.001)" />
        <path d="M0 0L14 0L14 7.00106L9.8016 2.80266L9.8016 2.79989L2.8016 2.79989L2.8016 9.79989L2.80224 9.79989L2.8016 9.80054L7.00106 14L0 14L0 0Z" fill="#FFFFFF" fill-rule="evenodd" transform="matrix(1 0 -0 1 3 3)" />
        <path d="M0 0L4.2426 0L4.2426 0.0048027L12.5291 8.19224L12.5291 12.3807L8.2883 12.3807L0.000413895 4.19187L0 4.19187L0 0ZM15.9999 20L15.9997 19.9999L16 19.9999L15.9999 20Z" fill="#FFFFFF" fill-rule="evenodd" transform="matrix(1 0 -0 1 8 8)" />
        <path d="M0 0L19.9967 0" fill="none" stroke-width="1.5" stroke="#FFFFFF" stroke-linecap="square" transform="matrix(1 0 -0 1 0 19.999)" />
        <path d="M0 0L0 19.9995" fill="none" stroke-width="1.5" stroke="#FFFFFF" stroke-linecap="square" transform="matrix(1 0 -0 1 19.999 0)" />
      </g>
    </g>
  </g>
</svg>